<svg width="36" height="36" viewBox="0 0 36 36" fill="none" xmlns="http://www.w3.org/2000/svg">
<g id="Group 31">
<circle id="Ellipse 3" cx="18" cy="18" r="18" fill="#DDBC6B"/>
<g id="Group">
<path id="Vector" d="M24.3002 13.4181C24.4018 13.3145 24.5229 13.2322 24.6566 13.1761C24.7904 13.1199 24.934 13.0909 25.079 13.0909C25.224 13.0909 25.3676 13.1199 25.5014 13.1761C25.6351 13.2322 25.7563 13.3145 25.8578 13.4181C26.2832 13.848 26.2892 14.5428 25.8727 14.9801L17.0763 25.3787C16.9764 25.4884 16.8552 25.5765 16.7201 25.6377C16.585 25.699 16.4388 25.732 16.2905 25.7347C16.1422 25.7375 15.9949 25.71 15.8576 25.6539C15.7203 25.5978 15.5959 25.5143 15.4919 25.4085L10.1394 19.9845C9.93302 19.774 9.81738 19.4909 9.81738 19.1961C9.81738 18.9013 9.93302 18.6182 10.1394 18.4076C10.241 18.3041 10.3621 18.2218 10.4959 18.1656C10.6296 18.1094 10.7732 18.0805 10.9182 18.0805C11.0633 18.0805 11.2069 18.1094 11.3406 18.1656C11.4743 18.2218 11.5955 18.3041 11.697 18.4076L16.2373 23.0089L24.2705 13.4509C24.2797 13.4394 24.2897 13.4284 24.3002 13.4181Z" fill="#4E3524"/>
</g>
</g>
</svg>
